<?xml version="1.0" encoding="UTF-8" standalone="no"?>
<svg
   xmlns:dc="http://purl.org/dc/elements/1.1/"
   xmlns:cc="http://creativecommons.org/ns#"
   xmlns:rdf="http://www.w3.org/1999/02/22-rdf-syntax-ns#"
   xmlns:svg="http://www.w3.org/2000/svg"
   xmlns="http://www.w3.org/2000/svg"
   viewBox="0 0 2081.9399 524.414"
   height="524.414"
   width="2081.9399"
   xml:space="preserve"
   version="1.1"
   id="svg3336"><metadata
     id="metadata3342"><rdf:RDF><cc:Work
         rdf:about=""><dc:format>image/svg+xml</dc:format><dc:type
           rdf:resource="http://purl.org/dc/dcmitype/StillImage" /><dc:title></dc:title></cc:Work></rdf:RDF></metadata><defs
     id="defs3340"><clipPath
       id="clipPath3352"
       clipPathUnits="userSpaceOnUse"><path
         id="path3354"
         d="m 0,0 2081.94,0 0,524.414 L 0,524.414 0,0 Z" /></clipPath></defs><g
     transform="matrix(1.25,0,0,-1.25,0,524.414)"
     id="g3344"><g
       transform="scale(0.8,0.8)"
       id="g3346"><g
         id="g3348"><g
           clip-path="url(#clipPath3352)"
           id="g3350"><path
             id="path3356"
             style="fill:#0b2b53;fill-opacity:1;fill-rule:nonzero;stroke:none"
             d="m 426.824,83.0742 -53.734,0 78.879,311.1528 -69.156,0 11.968,47.461 122.574,0 -90.531,-358.6138" /><path
             id="path3358"
             style="fill:#1eb7f1;fill-opacity:1;fill-rule:nonzero;stroke:none"
             d="m 373.766,524.199 -89.481,-355.383 0,95.786 -45.961,-0.012 -0.086,-34.199 -26.898,0.07 54.258,211.227 -34.77,0 20.789,82.726 -13.613,0 -99.356,-394.629 -68.2769,0 41.3399,163.692 c 9.961,39.957 11.723,47.476 17.602,77.929 8.16,42.379 -19.153,73.129 -60.3716,73.129 C 29.7305,444.535 0,421.598 0,383.984 l 0,-28.398 52.0117,0 0,26.391 c 0,9.195 7.2656,14.402 14.3203,14.402 7.1953,0 12.1055,-5.992 12.0078,-16.383 C 78.2031,365.227 67.5781,325.805 67.5781,325.805 L 5.1875,83.0742 126.887,83.0586 106.023,0.226563 l 13.887,0 46.383,184.597437 71.945,-0.019 0.086,-101.7308 24.379,0 L 241.785,0 l 41.977,0 131.703,524.199 -41.699,0" /><path
             id="path3360"
             style="fill:#0b2b53;fill-opacity:1;fill-rule:nonzero;stroke:none"
             d="m 570.969,344.988 19.644,12.434 c 5.215,-10.086 16.645,-16.633 29.575,-16.633 10.582,0 21.167,3.859 21.167,13.606 0,8.066 -6.55,11.425 -14.949,13.781 l -20.5,5.203 c -15.957,4.031 -28.562,12.43 -28.562,32.59 0,22.515 19.492,37.125 44.355,37.125 20.496,0 34.102,-5.879 43.34,-21.336 L 646.23,409.504 c -5.378,8.894 -14.953,12.43 -25.371,12.43 -9.238,0 -17.812,-3.704 -17.812,-13.106 0,-7.734 7.734,-10.754 16.808,-13.269 l 19.825,-5.039 c 15.625,-3.872 28.054,-13.274 28.054,-33.274 0,-24.023 -21.679,-37.793 -47.207,-37.793 -21.504,0 -40.832,7.395 -49.558,25.535" /><path
             id="path3362"
             style="fill:#0b2b53;fill-opacity:1;fill-rule:nonzero;stroke:none"
             d="m 708.391,419.414 -34.114,0 0,21.668 94.414,0 0,-21.668 -34.101,0 0,-98.113 -26.199,0 0,98.113" /><path
             id="path3364"
             style="fill:#0b2b53;fill-opacity:1;fill-rule:nonzero;stroke:none"
             d="m 827.844,366.492 -15.129,45.86 -0.332,0 -15.281,-45.86 30.742,0 z m -27.383,74.758 26.375,0 43.008,-119.949 -27.215,0 -8.066,24.019 -44.192,0 -8.223,-24.019 -25.207,0 43.52,119.949" /><path
             id="path3366"
             style="fill:#0b2b53;fill-opacity:1;fill-rule:nonzero;stroke:none"
             d="m 929.98,343.309 c 11.083,0 23.016,6.554 23.016,21.164 l 0,33.769 c 0,13.106 -10.926,20.828 -23.855,20.828 l -20.332,0 0,-75.761 21.171,0 z m -47.207,97.773 48.211,0 c 26.379,0 48.047,-15.625 48.047,-43.008 l 0,-32.761 c 0,-29.063 -23.347,-44.012 -47.715,-44.012 l -48.543,0 0,119.781" /><path
             id="path3368"
             style="fill:#0b2b53;fill-opacity:1;fill-rule:nonzero;stroke:none"
             d="m 1020.53,419.414 -34.112,0 0,21.668 94.412,0 0,-21.668 -34.1,0 0,-98.113 -26.2,0 0,98.113" /><path
             id="path3370"
             style="fill:#0b2b53;fill-opacity:1;fill-rule:nonzero;stroke:none"
             d="m 1093.78,441.082 26.38,0 17.63,-78.453 0.51,0 20.16,78.453 22.68,0 19.83,-78.785 0.16,0 17.98,78.785 25.54,0 -30.58,-120.293 -24.53,0 -20.33,80.141 -0.33,0 -20.5,-80.141 -24.02,0 -30.58,120.293" /><path
             id="path3372"
             style="fill:#0b2b53;fill-opacity:1;fill-rule:nonzero;stroke:none"
             d="m 1257.75,441.082 85.68,0 0,-22.012 -59.64,0 0,-26.035 51.57,0 0,-22.012 -51.57,0 0,-27.714 60.15,0 0,-22.008 -86.19,0 0,119.781" /><path
             id="path3374"
             style="fill:#0b2b53;fill-opacity:1;fill-rule:nonzero;stroke:none"
             d="m 1410.46,385.477 c 11.92,0 19.48,6.211 19.48,17.128 0,12.266 -8.06,17.305 -19.65,17.305 l -20.33,0 0,-34.433 20.5,0 z m -46.53,55.605 49.89,0 c 24.86,0 41.66,-14.277 41.66,-37.801 0,-14.277 -7.39,-28.894 -23.19,-34.941 l 28.74,-47.039 -28.74,0 -25.86,43.512 -16.47,0 0,-43.512 -26.03,0 0,119.781" /><path
             id="path3376"
             style="fill:#0b2b53;fill-opacity:1;fill-rule:nonzero;stroke:none"
             d="m 1478.84,441.082 26.03,0 0,-54.937 45.03,54.937 29.4,0 -40.15,-47.715 43.51,-72.066 -29.74,0 -31.91,53.758 -16.14,-17.469 0,-36.289 -26.03,0 0,119.781" /><path
             id="path3378"
             style="fill:#0b2b53;fill-opacity:1;fill-rule:nonzero;stroke:none"
             d="m 1594.92,441.082 85.68,0 0,-22.012 -59.64,0 0,-26.035 51.57,0 0,-22.012 -51.57,0 0,-27.714 60.14,0 0,-22.008 -86.18,0 0,119.781" /><path
             id="path3380"
             style="fill:#0b2b53;fill-opacity:1;fill-rule:nonzero;stroke:none"
             d="m 1749.47,441.082 16.47,0 0,-60.312 54.76,60.312 19.99,0 -43.51,-47.039 47.04,-72.742 -19.15,0 -38.81,60.64 -20.32,-20.828 0,-39.812 -16.47,0 0,119.781" /><path
             id="path3382"
             style="fill:#0b2b53;fill-opacity:1;fill-rule:nonzero;stroke:none"
             d="m 1862.54,321.301 16.4609,0 0,119.781 -16.4609,0 0,-119.781 z" /><path
             id="path3384"
             style="fill:#0b2b53;fill-opacity:1;fill-rule:nonzero;stroke:none"
             d="m 1903.19,441.25 78.96,0 0,-14.621 -62.49,0 0,-36.453 53.42,0 0,-14.446 -53.42,0 0,-39.812 63,0 0,-14.617 -79.47,0 0,119.949" /><path
             id="path3386"
             style="fill:#0b2b53;fill-opacity:1;fill-rule:nonzero;stroke:none"
             d="m 2004.83,441.082 16.47,0 0,-105.164 60.64,0 0,-14.617 -77.11,0 0,119.781" /></g></g></g></g></svg>