<svg width="2081.9399" height="524.414" xmlns="http://www.w3.org/2000/svg">
 <metadata id="metadata3342">image/svg+xml</metadata>
 <defs>
  <clipPath clipPathUnits="userSpaceOnUse" id="clipPath3352">
   <path d="m0,0l2081.94,0l0,524.414l-2081.94,0l0,-524.414z" id="path3354"/>
  </clipPath>
 </defs>
 <g>
  <title>background</title>
  <rect fill="none" id="canvas_background" height="402" width="582" y="-1" x="-1"/>
 </g>
 <g>
  <title>Layer 1</title>
  <g id="g3344" transform="matrix(1.25,0,0,-1.25,0,524.414) ">
   <g id="g3346" transform="scale(0.800000011920929) ">
    <g id="g3348">
     <g id="g3350" clip-path="url(#clipPath3352)">
      <path fill="#0b2b53" fill-rule="nonzero" d="m426.824,83.0742l-53.734,0l78.879,311.1528l-69.156,0l11.968,47.461l122.574,0l-90.531,-358.6138" id="path3356"/>
      <path fill="#1eb7f1" fill-rule="nonzero" d="m373.766,524.199l-89.481,-355.383l0,95.786l-45.961,-0.012l-0.086,-34.199l-26.898,0.07l54.258,211.227l-34.77,0l20.789,82.726l-13.613,0l-99.356,-394.629l-68.2769,0l41.3399,163.692c9.961,39.957 11.723,47.476 17.602,77.929c8.16,42.379 -19.153,73.129 -60.3716,73.129c-39.2109,0 -68.9414,-22.937 -68.9414,-60.551l0,-28.398l52.0117,0l0,26.391c0,9.195 7.2656,14.402 14.3203,14.402c7.1953,0 12.1055,-5.992 12.0078,-16.383c-0.1367,-14.769 -10.7617,-54.191 -10.7617,-54.191l-62.3906,-242.7308l121.6995,-0.0156l-20.864,-82.83204l13.887,0l46.383,184.59744l71.945,-0.019l0.086,-101.7308l24.379,0l-20.918,-83.0742l41.977,0l131.703,524.199l-41.699,0" id="path3358"/>
      <path fill="#0b2b53" fill-rule="nonzero" d="m570.969,344.988l19.644,12.434c5.215,-10.086 16.645,-16.633 29.575,-16.633c10.582,0 21.167,3.859 21.167,13.606c0,8.066 -6.55,11.425 -14.949,13.781l-20.5,5.203c-15.957,4.031 -28.562,12.43 -28.562,32.59c0,22.515 19.492,37.125 44.355,37.125c20.496,0 34.102,-5.879 43.34,-21.336l-18.809,-12.254c-5.378,8.894 -14.953,12.43 -25.371,12.43c-9.238,0 -17.812,-3.704 -17.812,-13.106c0,-7.734 7.734,-10.754 16.808,-13.269l19.825,-5.039c15.625,-3.872 28.054,-13.274 28.054,-33.274c0,-24.023 -21.679,-37.793 -47.207,-37.793c-21.504,0 -40.832,7.395 -49.558,25.535" id="path3360"/>
      <path fill="#0b2b53" fill-rule="nonzero" d="m708.391,419.414l-34.114,0l0,21.668l94.414,0l0,-21.668l-34.101,0l0,-98.113l-26.199,0l0,98.113" id="path3362"/>
      <path fill="#0b2b53" fill-rule="nonzero" d="m827.844,366.492l-15.129,45.86l-0.332,0l-15.281,-45.86l30.742,0zm-27.383,74.758l26.375,0l43.008,-119.949l-27.215,0l-8.066,24.019l-44.192,0l-8.223,-24.019l-25.207,0l43.52,119.949" id="path3364"/>
      <path fill="#0b2b53" fill-rule="nonzero" d="m929.98,343.309c11.083,0 23.016,6.554 23.016,21.164l0,33.769c0,13.106 -10.926,20.828 -23.855,20.828l-20.332,0l0,-75.761l21.171,0zm-47.207,97.773l48.211,0c26.379,0 48.047,-15.625 48.047,-43.008l0,-32.761c0,-29.063 -23.347,-44.012 -47.715,-44.012l-48.543,0l0,119.781" id="path3366"/>
      <path fill="#0b2b53" fill-rule="nonzero" d="m1020.53,419.414l-34.112,0l0,21.668l94.412,0l0,-21.668l-34.1,0l0,-98.113l-26.2,0l0,98.113" id="path3368"/>
      <path fill="#0b2b53" fill-rule="nonzero" d="m1093.78,441.082l26.38,0l17.63,-78.453l0.51,0l20.16,78.453l22.68,0l19.83,-78.785l0.16,0l17.98,78.785l25.54,0l-30.58,-120.293l-24.53,0l-20.33,80.141l-0.33,0l-20.5,-80.141l-24.02,0l-30.58,120.293" id="path3370"/>
      <path fill="#0b2b53" fill-rule="nonzero" d="m1257.75,441.082l85.68,0l0,-22.012l-59.64,0l0,-26.035l51.57,0l0,-22.012l-51.57,0l0,-27.714l60.15,0l0,-22.008l-86.19,0l0,119.781" id="path3372"/>
      <path fill="#0b2b53" fill-rule="nonzero" d="m1410.46,385.477c11.92,0 19.48,6.211 19.48,17.128c0,12.266 -8.06,17.305 -19.65,17.305l-20.33,0l0,-34.433l20.5,0zm-46.53,55.605l49.89,0c24.86,0 41.66,-14.277 41.66,-37.801c0,-14.277 -7.39,-28.894 -23.19,-34.941l28.74,-47.039l-28.74,0l-25.86,43.512l-16.47,0l0,-43.512l-26.03,0l0,119.781" id="path3374"/>
      <path fill="#0b2b53" fill-rule="nonzero" d="m1478.84,441.082l26.03,0l0,-54.937l45.03,54.937l29.4,0l-40.15,-47.715l43.51,-72.066l-29.74,0l-31.91,53.758l-16.14,-17.469l0,-36.289l-26.03,0l0,119.781" id="path3376"/>
      <path fill="#0b2b53" fill-rule="nonzero" d="m1594.92,441.082l85.68,0l0,-22.012l-59.64,0l0,-26.035l51.57,0l0,-22.012l-51.57,0l0,-27.714l60.14,0l0,-22.008l-86.18,0l0,119.781" id="path3378"/>
      <path fill="#0b2b53" fill-rule="nonzero" d="m1749.47,441.082l16.47,0l0,-60.312l54.76,60.312l19.99,0l-43.51,-47.039l47.04,-72.742l-19.15,0l-38.81,60.64l-20.32,-20.828l0,-39.812l-16.47,0l0,119.781" id="path3380"/>
      <path fill="#0b2b53" fill-rule="nonzero" d="m1862.54,321.301l16.4609,0l0,119.781l-16.4609,0l0,-119.781z" id="path3382"/>
      <path fill="#0b2b53" fill-rule="nonzero" d="m1903.19,441.25l78.96,0l0,-14.621l-62.49,0l0,-36.453l53.42,0l0,-14.446l-53.42,0l0,-39.812l63,0l0,-14.617l-79.47,0l0,119.949" id="path3384"/>
      <path fill="#0b2b53" fill-rule="nonzero" d="m2004.83,441.082l16.47,0l0,-105.164l60.64,0l0,-14.617l-77.11,0l0,119.781" id="path3386"/>
     </g>
    </g>
   </g>
  </g>
 </g>
</svg>